<svg xmlns="http://www.w3.org/2000/svg" width="1440" height="1200"><path d="M745,622L683,548L701,675Z" fill="#7bcbc5" stroke="#7bcbc5" stroke-width="1.51"/><path d="M745,622L807,538L683,548Z" fill="#7ecbc4" stroke="#7ecbc4" stroke-width="1.51"/><path d="M683,548L525,652L701,675Z" fill="#84cec2" stroke="#84cec2" stroke-width="1.51"/><path d="M683,548L529,551L525,652Z" fill="#91d3bd" stroke="#91d3bd" stroke-width="1.51"/><path d="M574,398L529,551L683,548Z" fill="#9bd7ba" stroke="#9bd7ba" stroke-width="1.51"/><path d="M807,538L696,441L683,548Z" fill="#89d0c0" stroke="#89d0c0" stroke-width="1.51"/><path d="M525,652L679,802L701,675Z" fill="#7ac7c6" stroke="#7ac7c6" stroke-width="1.51"/><path d="M701,675L861,789L745,622Z" fill="#69c0cb" stroke="#69c0cb" stroke-width="1.51"/><path d="M745,622L928,700L807,538Z" fill="#6dc3ca" stroke="#6dc3ca" stroke-width="1.51"/><path d="M679,802L798,813L701,675Z" fill="#65bdcb" stroke="#65bdcb" stroke-width="1.51"/><path d="M512,813L634,854L679,802Z" fill="#73bac3" stroke="#73bac3" stroke-width="1.51"/><path d="M529,551L450,677L525,652Z" fill="#94d3c0" stroke="#94d3c0" stroke-width="1.51"/><path d="M696,441L574,398L683,548Z" fill="#9ad7ba" stroke="#9ad7ba" stroke-width="1.51"/><path d="M529,551L422,503L450,677Z" fill="#9ed9bf" stroke="#9ed9bf" stroke-width="1.51"/><path d="M679,802L783,865L798,813Z" fill="#5cb3c8" stroke="#5cb3c8" stroke-width="1.51"/><path d="M512,813L679,802L525,652Z" fill="#7ec5c5" stroke="#7ec5c5" stroke-width="1.51"/><path d="M798,813L861,789L701,675Z" fill="#5ebace" stroke="#5ebace" stroke-width="1.51"/><path d="M807,538L815,387L696,441Z" fill="#8ed0c0" stroke="#8ed0c0" stroke-width="1.51"/><path d="M696,441L639,298L574,398Z" fill="#a6dcbd" stroke="#a6dcbd" stroke-width="1.51"/><path d="M932,527L858,429L807,538Z" fill="#7ec8c5" stroke="#7ec8c5" stroke-width="1.51"/><path d="M442,740L512,813L525,652Z" fill="#8acbc6" stroke="#8acbc6" stroke-width="1.51"/><path d="M861,789L928,700L745,622Z" fill="#5fbbce" stroke="#5fbbce" stroke-width="1.51"/><path d="M858,429L815,387L807,538Z" fill="#8acdc1" stroke="#8acdc1" stroke-width="1.51"/><path d="M964,621L932,527L807,538Z" fill="#6fc1ca" stroke="#6fc1ca" stroke-width="1.51"/><path d="M450,677L442,740L525,652Z" fill="#91cfc4" stroke="#91cfc4" stroke-width="1.51"/><path d="M634,854L783,865L679,802Z" fill="#63b4c4" stroke="#63b4c4" stroke-width="1.51"/><path d="M798,813L862,846L861,789Z" fill="#51aecc" stroke="#51aecc" stroke-width="1.51"/><path d="M574,398L422,503L529,551Z" fill="#a7dcb8" stroke="#a7dcb8" stroke-width="1.51"/><path d="M450,677L355,634L442,740Z" fill="#98d2c7" stroke="#98d2c7" stroke-width="1.51"/><path d="M928,700L964,621L807,538Z" fill="#64becd" stroke="#64becd" stroke-width="1.51"/><path d="M861,789L981,844L928,700Z" fill="#49add0" stroke="#49add0" stroke-width="1.51"/><path d="M1100,582L1018,560L964,621Z" fill="#61b2c4" stroke="#61b2c4" stroke-width="1.51"/><path d="M783,865L862,846L798,813Z" fill="#52adc9" stroke="#52adc9" stroke-width="1.51"/><path d="M512,813L549,884L634,854Z" fill="#77b9bf" stroke="#77b9bf" stroke-width="1.51"/><path d="M634,854L657,1023L783,865Z" fill="#5fabbf" stroke="#5fabbf" stroke-width="1.51"/><path d="M453,908L549,884L512,813Z" fill="#7db9be" stroke="#7db9be" stroke-width="1.51"/><path d="M792,278L639,298L696,441Z" fill="#a2dac2" stroke="#a2dac2" stroke-width="1.51"/><path d="M574,398L419,423L422,503Z" fill="#b0e0b8" stroke="#b0e0b8" stroke-width="1.51"/><path d="M510,313L419,423L574,398Z" fill="#b5e2ba" stroke="#b5e2ba" stroke-width="1.51"/><path d="M342,508L355,634L422,503Z" fill="#acdec2" stroke="#acdec2" stroke-width="1.51"/><path d="M422,503L355,634L450,677Z" fill="#a0d9c3" stroke="#a0d9c3" stroke-width="1.51"/><path d="M442,740L453,908L512,813Z" fill="#85c1c3" stroke="#85c1c3" stroke-width="1.51"/><path d="M815,387L792,278L696,441Z" fill="#99d5c3" stroke="#99d5c3" stroke-width="1.51"/><path d="M858,429L887,353L815,387Z" fill="#8fcec5" stroke="#8fcec5" stroke-width="1.51"/><path d="M1015,466L887,353L858,429Z" fill="#86c7c6" stroke="#86c7c6" stroke-width="1.51"/><path d="M1015,466L858,429L932,527Z" fill="#7dc2c4" stroke="#7dc2c4" stroke-width="1.51"/><path d="M964,621L1018,560L932,527Z" fill="#68b9c6" stroke="#68b9c6" stroke-width="1.51"/><path d="M1100,582L964,621L1135,659Z" fill="#58abc3" stroke="#58abc3" stroke-width="1.51"/><path d="M639,298L510,313L574,398Z" fill="#b2e1bc" stroke="#b2e1bc" stroke-width="1.51"/><path d="M887,353L792,278L815,387Z" fill="#98d1c7" stroke="#98d1c7" stroke-width="1.51"/><path d="M438,162L452,314L510,313Z" fill="#c4e8c2" stroke="#c4e8c2" stroke-width="1.51"/><path d="M419,423L342,508L422,503Z" fill="#b3e1bd" stroke="#b3e1bd" stroke-width="1.51"/><path d="M278,464L342,508L419,423Z" fill="#b9e4bf" stroke="#b9e4bf" stroke-width="1.51"/><path d="M1018,560L1015,466L932,527Z" fill="#71bac3" stroke="#71bac3" stroke-width="1.51"/><path d="M549,884L582,1005L634,854Z" fill="#6fafbb" stroke="#6fafbb" stroke-width="1.51"/><path d="M285,892L453,908L442,740Z" fill="#8bc0c4" stroke="#8bc0c4" stroke-width="1.51"/><path d="M510,313L452,314L419,423Z" fill="#bce5be" stroke="#bce5be" stroke-width="1.51"/><path d="M552,158L510,313L639,298Z" fill="#bae4c1" stroke="#bae4c1" stroke-width="1.51"/><path d="M862,846L981,844L861,789Z" fill="#46a9cd" stroke="#46a9cd" stroke-width="1.51"/><path d="M901,990L981,844L862,846Z" fill="#3e9fc8" stroke="#3e9fc8" stroke-width="1.51"/><path d="M901,990L862,846L783,865Z" fill="#47a3c7" stroke="#47a3c7" stroke-width="1.51"/><path d="M355,634L313,737L442,740Z" fill="#9ad2c9" stroke="#9ad2c9" stroke-width="1.51"/><path d="M173,635L313,737L355,634Z" fill="#a3d7cd" stroke="#a3d7cd" stroke-width="1.51"/><path d="M792,278L652,217L639,298Z" fill="#abddc6" stroke="#abddc6" stroke-width="1.51"/><path d="M453,908L582,1005L549,884Z" fill="#76b0b9" stroke="#76b0b9" stroke-width="1.51"/><path d="M582,1005L657,1023L634,854Z" fill="#67a8ba" stroke="#67a8ba" stroke-width="1.51"/><path d="M1103,738L964,621L928,700Z" fill="#52adcb" stroke="#52adcb" stroke-width="1.51"/><path d="M1018,560L1100,582L1015,466Z" fill="#6ab3c1" stroke="#6ab3c1" stroke-width="1.51"/><path d="M981,844L1049,817L928,700Z" fill="#43a4cb" stroke="#43a4cb" stroke-width="1.51"/><path d="M1113,857L1049,817L981,844Z" fill="#3797c4" stroke="#3797c4" stroke-width="1.51"/><path d="M301,331L278,464L419,423Z" fill="#c1e7c1" stroke="#c1e7c1" stroke-width="1.51"/><path d="M342,508L212,564L355,634Z" fill="#addfc7" stroke="#addfc7" stroke-width="1.51"/><path d="M780,1042L901,990L783,865Z" fill="#489cc2" stroke="#489cc2" stroke-width="1.51"/><path d="M887,353L906,224L792,278Z" fill="#9bd2cc" stroke="#9bd2cc" stroke-width="1.51"/><path d="M792,278L809,185L652,217Z" fill="#a9dbcc" stroke="#a9dbcc" stroke-width="1.51"/><path d="M1015,466L968,282L887,353Z" fill="#8ac5c6" stroke="#8ac5c6" stroke-width="1.51"/><path d="M1130,427L968,282L1015,466Z" fill="#81bac0" stroke="#81bac0" stroke-width="1.51"/><path d="M657,1023L780,1042L783,865Z" fill="#54a0be" stroke="#54a0be" stroke-width="1.51"/><path d="M1049,817L1103,738L928,700Z" fill="#43a5cb" stroke="#43a5cb" stroke-width="1.51"/><path d="M906,224L809,185L792,278Z" fill="#a1d5cf" stroke="#a1d5cf" stroke-width="1.51"/><path d="M968,282L906,224L887,353Z" fill="#96cdcd" stroke="#96cdcd" stroke-width="1.51"/><path d="M557,1104L685,1110L657,1023Z" fill="#6098b1" stroke="#6098b1" stroke-width="1.51"/><path d="M453,908L394,962L582,1005Z" fill="#7baeba" stroke="#7baeba" stroke-width="1.51"/><path d="M285,892L394,962L453,908Z" fill="#87b7c1" stroke="#87b7c1" stroke-width="1.51"/><path d="M1100,582L1130,427L1015,466Z" fill="#70b1bc" stroke="#70b1bc" stroke-width="1.51"/><path d="M1103,738L1135,659L964,621Z" fill="#4fa7c5" stroke="#4fa7c5" stroke-width="1.51"/><path d="M278,464L212,564L342,508Z" fill="#b7e3c5" stroke="#b7e3c5" stroke-width="1.51"/><path d="M313,737L285,892L442,740Z" fill="#93cacb" stroke="#93cacb" stroke-width="1.51"/><path d="M278,464L216,441L212,564Z" fill="#bce5c6" stroke="#bce5c6" stroke-width="1.51"/><path d="M452,314L301,331L419,423Z" fill="#c3e8c0" stroke="#c3e8c0" stroke-width="1.51"/><path d="M325,196L301,331L452,314Z" fill="#ceecc6" stroke="#ceecc6" stroke-width="1.51"/><path d="M652,217L552,158L639,298Z" fill="#b7e3c5" stroke="#b7e3c5" stroke-width="1.51"/><path d="M538,97L552,158L673,74Z" fill="#c2e7cd" stroke="#c2e7cd" stroke-width="1.51"/><path d="M901,990L979,988L981,844Z" fill="#3794c3" stroke="#3794c3" stroke-width="1.51"/><path d="M1049,817L1113,857L1103,738Z" fill="#3797c4" stroke="#3797c4" stroke-width="1.51"/><path d="M1044,1080L979,988L920,1162Z" fill="#2b80b7" stroke="#2b80b7" stroke-width="1.51"/><path d="M213,855L285,892L313,737Z" fill="#95c6cd" stroke="#95c6cd" stroke-width="1.51"/><path d="M1255,534L1130,427L1100,582Z" fill="#68a7ba" stroke="#68a7ba" stroke-width="1.51"/><path d="M927,84L809,185L906,224Z" fill="#a1d4d5" stroke="#a1d4d5" stroke-width="1.51"/><path d="M301,331L216,441L278,464Z" fill="#c4e8c5" stroke="#c4e8c5" stroke-width="1.51"/><path d="M1103,738L1202,758L1135,659Z" fill="#429ac4" stroke="#429ac4" stroke-width="1.51"/><path d="M1108,967L1113,857L981,844Z" fill="#2e8fbf" stroke="#2e8fbf" stroke-width="1.51"/><path d="M657,1023L685,1110L780,1042Z" fill="#5598b7" stroke="#5598b7" stroke-width="1.51"/><path d="M780,1042L920,1162L901,990Z" fill="#3b8dbc" stroke="#3b8dbc" stroke-width="1.51"/><path d="M557,1104L657,1023L582,1005Z" fill="#679eb5" stroke="#679eb5" stroke-width="1.51"/><path d="M465,1136L557,1104L582,1005Z" fill="#6e9bad" stroke="#6e9bad" stroke-width="1.51"/><path d="M465,1136L582,1005L394,962Z" fill="#76a5b5" stroke="#76a5b5" stroke-width="1.51"/><path d="M212,564L173,635L355,634Z" fill="#abddcc" stroke="#abddcc" stroke-width="1.51"/><path d="M99,639L173,635L94,518Z" fill="#b4e1d3" stroke="#b4e1d3" stroke-width="1.51"/><path d="M552,158L438,162L510,313Z" fill="#c4e8c5" stroke="#c4e8c5" stroke-width="1.51"/><path d="M685,1110L749,1134L780,1042Z" fill="#4f91b3" stroke="#4f91b3" stroke-width="1.51"/><path d="M661,1224L749,1134L685,1110Z" fill="#538aa8" stroke="#538aa8" stroke-width="1.51"/><path d="M809,185L673,74L652,217Z" fill="#b0e0ce" stroke="#b0e0ce" stroke-width="1.51"/><path d="M552,158L538,97L438,162Z" fill="#c8eaca" stroke="#c8eaca" stroke-width="1.51"/><path d="M927,84L803,102L809,185Z" fill="#a7d7d7" stroke="#a7d7d7" stroke-width="1.51"/><path d="M997,163L906,224L968,282Z" fill="#97cacf" stroke="#97cacf" stroke-width="1.51"/><path d="M285,892L358,1033L394,962Z" fill="#88b2c0" stroke="#88b2c0" stroke-width="1.51"/><path d="M175,802L213,855L313,737Z" fill="#99cbd1" stroke="#99cbd1" stroke-width="1.51"/><path d="M158,995L358,1033L285,892Z" fill="#8bb2c3" stroke="#8bb2c3" stroke-width="1.51"/><path d="M673,74L552,158L652,217Z" fill="#bbe4cb" stroke="#bbe4cb" stroke-width="1.51"/><path d="M803,102L673,74L809,185Z" fill="#afddd4" stroke="#afddd4" stroke-width="1.51"/><path d="M173,635L175,802L313,737Z" fill="#a1d4d4" stroke="#a1d4d4" stroke-width="1.51"/><path d="M1113,857L1202,758L1103,738Z" fill="#3795c3" stroke="#3795c3" stroke-width="1.51"/><path d="M1135,659L1255,534L1100,582Z" fill="#59a3bd" stroke="#59a3bd" stroke-width="1.51"/><path d="M424,114L325,196L438,162Z" fill="#d2eece" stroke="#d2eece" stroke-width="1.51"/><path d="M438,162L325,196L452,314Z" fill="#cdecc8" stroke="#cdecc8" stroke-width="1.51"/><path d="M301,331L179,293L216,441Z" fill="#cdecca" stroke="#cdecca" stroke-width="1.51"/><path d="M1124,280L997,163L968,282Z" fill="#91c1ca" stroke="#91c1ca" stroke-width="1.51"/><path d="M1237,337L1124,280L1130,427Z" fill="#80afbc" stroke="#80afbc" stroke-width="1.51"/><path d="M1130,427L1124,280L968,282Z" fill="#87b9c1" stroke="#87b9c1" stroke-width="1.51"/><path d="M979,988L1108,967L981,844Z" fill="#308ebf" stroke="#308ebf" stroke-width="1.51"/><path d="M1113,857L1282,843L1202,758Z" fill="#2f8abe" stroke="#2f8abe" stroke-width="1.51"/><path d="M1044,1080L1108,967L979,988Z" fill="#2782ba" stroke="#2782ba" stroke-width="1.51"/><path d="M538,97L424,114L438,162Z" fill="#ceeccd" stroke="#ceeccd" stroke-width="1.51"/><path d="M409,-1L424,114L538,97Z" fill="#d3eed1" stroke="#d3eed1" stroke-width="1.51"/><path d="M358,1033L465,1136L394,962Z" fill="#7ea5b8" stroke="#7ea5b8" stroke-width="1.51"/><path d="M557,1104L661,1224L685,1110Z" fill="#5d8ea7" stroke="#5d8ea7" stroke-width="1.51"/><path d="M1283,613L1255,534L1135,659Z" fill="#549cbb" stroke="#549cbb" stroke-width="1.51"/><path d="M173,635L91,756L175,802Z" fill="#a4d5d8" stroke="#a4d5d8" stroke-width="1.51"/><path d="M94,518L173,635L212,564Z" fill="#b5e2cf" stroke="#b5e2cf" stroke-width="1.51"/><path d="M94,518L212,564L216,441Z" fill="#bde5cb" stroke="#bde5cb" stroke-width="1.51"/><path d="M668,-49L564,-8L673,74Z" fill="#c5e8d6" stroke="#c5e8d6" stroke-width="1.51"/><path d="M997,163L927,84L906,224Z" fill="#9dcdd4" stroke="#9dcdd4" stroke-width="1.51"/><path d="M969,55L927,84L997,163Z" fill="#a0cdd7" stroke="#a0cdd7" stroke-width="1.51"/><path d="M920,1162L979,988L901,990Z" fill="#318abe" stroke="#318abe" stroke-width="1.51"/><path d="M93,387L94,518L216,441Z" fill="#c7e9ca" stroke="#c7e9ca" stroke-width="1.51"/><path d="M228,194L179,293L301,331Z" fill="#d5efce" stroke="#d5efce" stroke-width="1.51"/><path d="M228,194L301,331L325,196Z" fill="#d4eece" stroke="#d4eece" stroke-width="1.51"/><path d="M749,1134L920,1162L780,1042Z" fill="#4389b3" stroke="#4389b3" stroke-width="1.51"/><path d="M889,1200L920,1162L749,1134Z" fill="#3c7fad" stroke="#3c7fad" stroke-width="1.51"/><path d="M1314,798L1283,613L1202,758Z" fill="#3b8ebd" stroke="#3b8ebd" stroke-width="1.51"/><path d="M1202,758L1283,613L1135,659Z" fill="#4898bf" stroke="#4898bf" stroke-width="1.51"/><path d="M99,639L91,756L173,635Z" fill="#acdad7" stroke="#acdad7" stroke-width="1.51"/><path d="M104,959L158,995L213,855Z" fill="#93bacd" stroke="#93bacd" stroke-width="1.51"/><path d="M213,855L158,995L285,892Z" fill="#91bbca" stroke="#91bbca" stroke-width="1.51"/><path d="M11,684L91,756L99,639Z" fill="#addadb" stroke="#addadb" stroke-width="1.51"/><path d="M509,1207L661,1224L557,1104Z" fill="#648ca1" stroke="#648ca1" stroke-width="1.51"/><path d="M284,120L228,194L325,196Z" fill="#d9f1d3" stroke="#d9f1d3" stroke-width="1.51"/><path d="M465,1136L509,1207L557,1104Z" fill="#6d92a5" stroke="#6d92a5" stroke-width="1.51"/><path d="M449,1232L509,1207L465,1136Z" fill="#6e8da0" stroke="#6e8da0" stroke-width="1.51"/><path d="M449,1232L465,1136L300,1160Z" fill="#7692a6" stroke="#7692a6" stroke-width="1.51"/><path d="M661,1224L764,1226L749,1134Z" fill="#4d83a3" stroke="#4d83a3" stroke-width="1.51"/><path d="M1359,539L1280,455L1255,534Z" fill="#6498b0" stroke="#6498b0" stroke-width="1.51"/><path d="M1255,534L1280,455L1130,427Z" fill="#6da3b5" stroke="#6da3b5" stroke-width="1.51"/><path d="M1280,455L1237,337L1130,427Z" fill="#77a7b6" stroke="#77a7b6" stroke-width="1.51"/><path d="M1095,40L969,55L997,163Z" fill="#9dc7d5" stroke="#9dc7d5" stroke-width="1.51"/><path d="M764,1226L889,1200L749,1134Z" fill="#447fa8" stroke="#447fa8" stroke-width="1.51"/><path d="M1087,1245L1120,1115L1044,1080Z" fill="#1e6ca7" stroke="#1e6ca7" stroke-width="1.51"/><path d="M1158,163L997,163L1124,280Z" fill="#90bbc9" stroke="#90bbc9" stroke-width="1.51"/><path d="M886,-28L759,-43L803,102Z" fill="#b2dddd" stroke="#b2dddd" stroke-width="1.51"/><path d="M78,354L93,387L179,293Z" fill="#d5efd1" stroke="#d5efd1" stroke-width="1.51"/><path d="M179,293L93,387L216,441Z" fill="#ceeccd" stroke="#ceeccd" stroke-width="1.51"/><path d="M-4,504L11,684L99,639Z" fill="#b8e2d8" stroke="#b8e2d8" stroke-width="1.51"/><path d="M673,74L564,-8L538,97Z" fill="#c6e9d0" stroke="#c6e9d0" stroke-width="1.51"/><path d="M424,114L284,120L325,196Z" fill="#d8f0d1" stroke="#d8f0d1" stroke-width="1.51"/><path d="M759,-43L673,74L803,102Z" fill="#b6e1d8" stroke="#b6e1d8" stroke-width="1.51"/><path d="M409,-1L284,120L424,114Z" fill="#dbf1d4" stroke="#dbf1d4" stroke-width="1.51"/><path d="M1237,337L1197,233L1124,280Z" fill="#86afbe" stroke="#86afbe" stroke-width="1.51"/><path d="M1108,967L1282,843L1113,857Z" fill="#2784bb" stroke="#2784bb" stroke-width="1.51"/><path d="M1256,1019L1282,843L1108,967Z" fill="#1d79b5" stroke="#1d79b5" stroke-width="1.51"/><path d="M104,959L213,855L49,900Z" fill="#96bfd0" stroke="#96bfd0" stroke-width="1.51"/><path d="M-16,275L78,354L43,169Z" fill="#e2f4db" stroke="#e2f4db" stroke-width="1.51"/><path d="M-1,404L-4,504L94,518Z" fill="#caebd2" stroke="#caebd2" stroke-width="1.51"/><path d="M-1,404L78,354L-16,275Z" fill="#dbf1d7" stroke="#dbf1d7" stroke-width="1.51"/><path d="M1197,233L1158,163L1124,280Z" fill="#8bb3c4" stroke="#8bb3c4" stroke-width="1.51"/><path d="M1282,843L1314,798L1202,758Z" fill="#2e86bc" stroke="#2e86bc" stroke-width="1.51"/><path d="M1283,613L1359,539L1255,534Z" fill="#5a95b2" stroke="#5a95b2" stroke-width="1.51"/><path d="M554,1359L650,1364L661,1224Z" fill="#5d879f" stroke="#5d879f" stroke-width="1.51"/><path d="M903,1313L889,1200L764,1226Z" fill="#3b7aa8" stroke="#3b7aa8" stroke-width="1.51"/><path d="M300,1160L465,1136L358,1033Z" fill="#7d9db1" stroke="#7d9db1" stroke-width="1.51"/><path d="M886,-28L803,102L927,84Z" fill="#aad8dd" stroke="#aad8dd" stroke-width="1.51"/><path d="M759,-43L668,-49L673,74Z" fill="#bee5d9" stroke="#bee5d9" stroke-width="1.51"/><path d="M158,995L300,1160L358,1033Z" fill="#86a7bd" stroke="#86a7bd" stroke-width="1.51"/><path d="M1044,1080L1120,1115L1108,967Z" fill="#1d78b4" stroke="#1d78b4" stroke-width="1.51"/><path d="M1282,843L1383,904L1314,798Z" fill="#2778b0" stroke="#2778b0" stroke-width="1.51"/><path d="M1014,1267L1044,1080L920,1162Z" fill="#2972a9" stroke="#2972a9" stroke-width="1.51"/><path d="M322,-34L409,-1L350,-160Z" fill="#e2f4da" stroke="#e2f4da" stroke-width="1.51"/><path d="M564,-8L409,-1L538,97Z" fill="#d1edd2" stroke="#d1edd2" stroke-width="1.51"/><path d="M245,1240L339,1261L300,1160Z" fill="#7c92a8" stroke="#7c92a8" stroke-width="1.51"/><path d="M49,900L213,855L175,802Z" fill="#9ac5d3" stroke="#9ac5d3" stroke-width="1.51"/><path d="M91,756L49,900L175,802Z" fill="#9fcbd7" stroke="#9fcbd7" stroke-width="1.51"/><path d="M-4,504L99,639L94,518Z" fill="#bee5d4" stroke="#bee5d4" stroke-width="1.51"/><path d="M1046,-22L886,-28L969,55Z" fill="#a7cfde" stroke="#a7cfde" stroke-width="1.51"/><path d="M969,55L886,-28L927,84Z" fill="#a7d3de" stroke="#a7d3de" stroke-width="1.51"/><path d="M1370,644L1359,539L1283,613Z" fill="#518faf" stroke="#518faf" stroke-width="1.51"/><path d="M1280,455L1325,384L1237,337Z" fill="#76a0b2" stroke="#76a0b2" stroke-width="1.51"/><path d="M1237,337L1350,308L1197,233Z" fill="#82a7ba" stroke="#82a7ba" stroke-width="1.51"/><path d="M1359,539L1325,384L1280,455Z" fill="#6b98ab" stroke="#6b98ab" stroke-width="1.51"/><path d="M1197,233L1274,99L1158,163Z" fill="#8dafc6" stroke="#8dafc6" stroke-width="1.51"/><path d="M1314,798L1370,644L1283,613Z" fill="#428ab5" stroke="#428ab5" stroke-width="1.51"/><path d="M-1,404L94,518L93,387Z" fill="#cdeccf" stroke="#cdeccf" stroke-width="1.51"/><path d="M-40,800L49,900L91,756Z" fill="#a4cddb" stroke="#a4cddb" stroke-width="1.51"/><path d="M1120,1115L1256,1019L1108,967Z" fill="#1974b2" stroke="#1974b2" stroke-width="1.51"/><path d="M1314,798L1426,701L1370,644Z" fill="#3b82b0" stroke="#3b82b0" stroke-width="1.51"/><path d="M1158,163L1095,40L997,163Z" fill="#95becf" stroke="#95becf" stroke-width="1.51"/><path d="M1274,99L1095,40L1158,163Z" fill="#93b5cc" stroke="#93b5cc" stroke-width="1.51"/><path d="M43,169L179,293L228,194Z" fill="#def2d7" stroke="#def2d7" stroke-width="1.51"/><path d="M78,354L-1,404L93,387Z" fill="#d5eed2" stroke="#d5eed2" stroke-width="1.51"/><path d="M284,120L163,114L228,194Z" fill="#def2d8" stroke="#def2d8" stroke-width="1.51"/><path d="M221,-8L163,114L284,120Z" fill="#e3f4dd" stroke="#e3f4dd" stroke-width="1.51"/><path d="M886,-28L757,-112L759,-43Z" fill="#b5dedd" stroke="#b5dedd" stroke-width="1.51"/><path d="M759,-43L757,-112L668,-49Z" fill="#bbe4da" stroke="#bbe4da" stroke-width="1.51"/><path d="M559,-143L409,-1L564,-8Z" fill="#d3eed4" stroke="#d3eed4" stroke-width="1.51"/><path d="M901,-176L757,-112L886,-28Z" fill="#b1dbe0" stroke="#b1dbe0" stroke-width="1.51"/><path d="M300,1160L339,1261L449,1232Z" fill="#7990a4" stroke="#7990a4" stroke-width="1.51"/><path d="M650,1364L764,1226L661,1224Z" fill="#5284a2" stroke="#5284a2" stroke-width="1.51"/><path d="M180,1163L300,1160L158,995Z" fill="#86a2ba" stroke="#86a2ba" stroke-width="1.51"/><path d="M180,1163L158,995L51,1125Z" fill="#8ba5c1" stroke="#8ba5c1" stroke-width="1.51"/><path d="M1095,40L1046,-22L969,55Z" fill="#a0c7d8" stroke="#a0c7d8" stroke-width="1.51"/><path d="M1120,1115L1273,1098L1256,1019Z" fill="#1069aa" stroke="#1069aa" stroke-width="1.51"/><path d="M889,1200L1014,1267L920,1162Z" fill="#2e73a7" stroke="#2e73a7" stroke-width="1.51"/><path d="M903,1313L1014,1267L889,1200Z" fill="#2f73a7" stroke="#2f73a7" stroke-width="1.51"/><path d="M903,1313L764,1226L798,1362Z" fill="#407ca7" stroke="#407ca7" stroke-width="1.51"/><path d="M661,1224L509,1207L554,1359Z" fill="#63899e" stroke="#63899e" stroke-width="1.51"/><path d="M1325,384L1350,308L1237,337Z" fill="#7b9fb2" stroke="#7b9fb2" stroke-width="1.51"/><path d="M1095,40L1164,-74L1046,-22Z" fill="#9ec0d6" stroke="#9ec0d6" stroke-width="1.51"/><path d="M1499,431L1350,308L1325,384Z" fill="#7393a6" stroke="#7393a6" stroke-width="1.51"/><path d="M1499,431L1325,384L1359,539Z" fill="#6a90a2" stroke="#6a90a2" stroke-width="1.51"/><path d="M409,-1L322,-34L284,120Z" fill="#e1f3da" stroke="#e1f3da" stroke-width="1.51"/><path d="M559,-143L564,-8L668,-49Z" fill="#caead5" stroke="#caead5" stroke-width="1.51"/><path d="M1273,1098L1323,983L1256,1019Z" fill="#0c67aa" stroke="#0c67aa" stroke-width="1.51"/><path d="M1256,1019L1323,983L1282,843Z" fill="#1971ae" stroke="#1971ae" stroke-width="1.51"/><path d="M51,1125L158,995L104,959Z" fill="#91b0ca" stroke="#91b0ca" stroke-width="1.51"/><path d="M11,684L-40,800L91,756Z" fill="#abd7e1" stroke="#abd7e1" stroke-width="1.51"/><path d="M49,900L-17,983L104,959Z" fill="#99bbd2" stroke="#99bbd2" stroke-width="1.51"/><path d="M-123,656L-40,800L11,684Z" fill="#b0dae0" stroke="#b0dae0" stroke-width="1.51"/><path d="M-123,656L11,684L-131,553Z" fill="#b8e2db" stroke="#b8e2db" stroke-width="1.51"/><path d="M1370,644L1499,506L1359,539Z" fill="#5688a5" stroke="#5688a5" stroke-width="1.51"/><path d="M1444,783L1426,701L1314,798Z" fill="#327baf" stroke="#327baf" stroke-width="1.51"/><path d="M1014,1267L1087,1245L1044,1080Z" fill="#2269a2" stroke="#2269a2" stroke-width="1.51"/><path d="M1115,1304L1087,1245L1014,1267Z" fill="#1f66a0" stroke="#1f66a0" stroke-width="1.51"/><path d="M554,1359L509,1207L475,1364Z" fill="#6b8b9d" stroke="#6b8b9d" stroke-width="1.51"/><path d="M475,1364L509,1207L449,1232Z" fill="#6e8c9f" stroke="#6e8c9f" stroke-width="1.51"/><path d="M975,1375L1115,1304L1014,1267Z" fill="#246aa2" stroke="#246aa2" stroke-width="1.51"/><path d="M650,1364L798,1362L764,1226Z" fill="#4b82a3" stroke="#4b82a3" stroke-width="1.51"/><path d="M-40,800L-42,847L49,900Z" fill="#a3c9db" stroke="#a3c9db" stroke-width="1.51"/><path d="M1323,983L1383,904L1282,843Z" fill="#1d71ac" stroke="#1d71ac" stroke-width="1.51"/><path d="M339,1261L475,1364L449,1232Z" fill="#738ea2" stroke="#738ea2" stroke-width="1.51"/><path d="M180,1163L245,1240L300,1160Z" fill="#8094ac" stroke="#8094ac" stroke-width="1.51"/><path d="M757,-112L627,-149L668,-49Z" fill="#c0e6d8" stroke="#c0e6d8" stroke-width="1.51"/><path d="M1267,1208L1273,1098L1120,1115Z" fill="#0f60a1" stroke="#0f60a1" stroke-width="1.51"/><path d="M1454,1027L1459,879L1383,904Z" fill="#1a629e" stroke="#1a629e" stroke-width="1.51"/><path d="M627,-149L559,-143L668,-49Z" fill="#c7e9d6" stroke="#c7e9d6" stroke-width="1.51"/><path d="M322,-34L221,-8L284,120Z" fill="#e4f5dd" stroke="#e4f5dd" stroke-width="1.51"/><path d="M43,169L78,354L179,293Z" fill="#ddf2d6" stroke="#ddf2d6" stroke-width="1.51"/><path d="M231,-128L221,-8L322,-34Z" fill="#e7f6e0" stroke="#e7f6e0" stroke-width="1.51"/><path d="M43,169L228,194L163,114Z" fill="#e2f4dc" stroke="#e2f4dc" stroke-width="1.51"/><path d="M-131,553L11,684L-4,504Z" fill="#bee5d9" stroke="#bee5d9" stroke-width="1.51"/><path d="M104,71L43,169L163,114Z" fill="#e8f6e1" stroke="#e8f6e1" stroke-width="1.51"/><path d="M281,1335L475,1364L339,1261Z" fill="#7990a4" stroke="#7990a4" stroke-width="1.51"/><path d="M554,1359L475,1364L650,1364Z" fill="#65899d" stroke="#65899d" stroke-width="1.51"/><path d="M1383,904L1444,783L1314,798Z" fill="#2974ab" stroke="#2974ab" stroke-width="1.51"/><path d="M1460,169L1346,155L1350,308Z" fill="#8199b1" stroke="#8199b1" stroke-width="1.51"/><path d="M1346,155L1274,99L1197,233Z" fill="#8aa8c2" stroke="#8aa8c2" stroke-width="1.51"/><path d="M180,1163L73,1229L245,1240Z" fill="#8394af" stroke="#8394af" stroke-width="1.51"/><path d="M-42,847L-17,983L49,900Z" fill="#9ec1d7" stroke="#9ec1d7" stroke-width="1.51"/><path d="M221,-8L104,71L163,114Z" fill="#e8f6e2" stroke="#e8f6e2" stroke-width="1.51"/><path d="M757,-112L901,-176L627,-149Z" fill="#b8e1dc" stroke="#b8e1dc" stroke-width="1.51"/><path d="M1046,-22L1017,-116L886,-28Z" fill="#a6cedd" stroke="#a6cedd" stroke-width="1.51"/><path d="M1164,-74L1017,-116L1046,-22Z" fill="#9fc3d8" stroke="#9fc3d8" stroke-width="1.51"/><path d="M-42,847L-120,993L-17,983Z" fill="#9cbdd5" stroke="#9cbdd5" stroke-width="1.51"/><path d="M-40,800L-131,778L-42,847Z" fill="#a7cfde" stroke="#a7cfde" stroke-width="1.51"/><path d="M-131,553L-4,504L-140,431Z" fill="#caead5" stroke="#caead5" stroke-width="1.51"/><path d="M-140,431L-4,504L-1,404Z" fill="#d0edd2" stroke="#d0edd2" stroke-width="1.51"/><path d="M43,169L11,164L-16,275Z" fill="#e7f6e1" stroke="#e7f6e1" stroke-width="1.51"/><path d="M-14,68L11,164L43,169Z" fill="#ecf8e5" stroke="#ecf8e5" stroke-width="1.51"/><path d="M1248,-66L1164,-74L1095,40Z" fill="#9ab9d3" stroke="#9ab9d3" stroke-width="1.51"/><path d="M1350,308L1346,155L1197,233Z" fill="#84a3ba" stroke="#84a3ba" stroke-width="1.51"/><path d="M1499,506L1370,644L1426,701Z" fill="#4b82a5" stroke="#4b82a5" stroke-width="1.51"/><path d="M-17,983L51,1125L104,959Z" fill="#95b1ce" stroke="#95b1ce" stroke-width="1.51"/><path d="M-140,431L-1,404L-122,355Z" fill="#d6efd5" stroke="#d6efd5" stroke-width="1.51"/><path d="M1346,155L1328,120L1274,99Z" fill="#8aa4bf" stroke="#8aa4bf" stroke-width="1.51"/><path d="M1087,1245L1267,1208L1120,1115Z" fill="#175f9d" stroke="#175f9d" stroke-width="1.51"/><path d="M975,1375L1014,1267L903,1313Z" fill="#2c71a6" stroke="#2c71a6" stroke-width="1.51"/><path d="M798,1362L975,1375L903,1313Z" fill="#3478a9" stroke="#3478a9" stroke-width="1.51"/><path d="M650,1364L975,1375L798,1362Z" fill="#427da6" stroke="#427da6" stroke-width="1.51"/><path d="M475,1364L975,1375L650,1364Z" fill="#5183a2" stroke="#5183a2" stroke-width="1.51"/><path d="M1017,-116L901,-176L886,-28Z" fill="#a9d3e0" stroke="#a9d3e0" stroke-width="1.51"/><path d="M627,-149L434,-180L559,-143Z" fill="#d0edd2" stroke="#d0edd2" stroke-width="1.51"/><path d="M1565,530L1499,506L1426,701Z" fill="#5283a2" stroke="#5283a2" stroke-width="1.51"/><path d="M1383,904L1459,879L1444,783Z" fill="#256ba4" stroke="#256ba4" stroke-width="1.51"/><path d="M1454,1027L1383,904L1323,983Z" fill="#1663a1" stroke="#1663a1" stroke-width="1.51"/><path d="M1358,1114L1323,983L1273,1098Z" fill="#095fa3" stroke="#095fa3" stroke-width="1.51"/><path d="M180,1342L281,1335L245,1240Z" fill="#8093ab" stroke="#8093ab" stroke-width="1.51"/><path d="M245,1240L281,1335L339,1261Z" fill="#7d92a8" stroke="#7d92a8" stroke-width="1.51"/><path d="M1565,530L1426,701L1609,633Z" fill="#4b81a4" stroke="#4b81a4" stroke-width="1.51"/><path d="M-123,656L-131,778L-40,800Z" fill="#acd8e1" stroke="#acd8e1" stroke-width="1.51"/><path d="M-4,1216L73,1229L51,1125Z" fill="#8b99b7" stroke="#8b99b7" stroke-width="1.51"/><path d="M-170,888L-131,778L-123,656Z" fill="#aad4e0" stroke="#aad4e0" stroke-width="1.51"/><path d="M221,-8L126,-46L104,71Z" fill="#edf8e6" stroke="#edf8e6" stroke-width="1.51"/><path d="M559,-143L434,-180L409,-1Z" fill="#d7f0d5" stroke="#d7f0d5" stroke-width="1.51"/><path d="M901,-176L434,-180L627,-149Z" fill="#c3e7d7" stroke="#c3e7d7" stroke-width="1.51"/><path d="M1115,1304L1267,1208L1087,1245Z" fill="#175e9b" stroke="#175e9b" stroke-width="1.51"/><path d="M1499,506L1499,431L1359,539Z" fill="#61889e" stroke="#61889e" stroke-width="1.51"/><path d="M1346,155L1460,169L1328,120Z" fill="#859bb6" stroke="#859bb6" stroke-width="1.51"/><path d="M1248,-66L1095,40L1274,99Z" fill="#97b4cf" stroke="#97b4cf" stroke-width="1.51"/><path d="M1017,-116L1150,-168L901,-176Z" fill="#a3c9db" stroke="#a3c9db" stroke-width="1.51"/><path d="M-131,553L-170,888L-123,656Z" fill="#b1dbdf" stroke="#b1dbdf" stroke-width="1.51"/><path d="M-122,355L-1,404L-16,275Z" fill="#dcf2d8" stroke="#dcf2d8" stroke-width="1.51"/><path d="M434,-180L350,-160L409,-1Z" fill="#def2d9" stroke="#def2d9" stroke-width="1.51"/><path d="M1267,1208L1358,1114L1273,1098Z" fill="#09579a" stroke="#09579a" stroke-width="1.51"/><path d="M-123,194L-122,355L-16,275Z" fill="#e3f4dc" stroke="#e3f4dc" stroke-width="1.51"/><path d="M1499,431L1479,293L1350,308Z" fill="#748ea2" stroke="#748ea2" stroke-width="1.51"/><path d="M1380,-62L1248,-66L1274,99Z" fill="#94aac9" stroke="#94aac9" stroke-width="1.51"/><path d="M231,-128L126,-46L221,-8Z" fill="#ebf7e4" stroke="#ebf7e4" stroke-width="1.51"/><path d="M104,71L-14,68L43,169Z" fill="#ecf8e6" stroke="#ecf8e6" stroke-width="1.51"/><path d="M11,164L-123,194L-16,275Z" fill="#e8f6e1" stroke="#e8f6e1" stroke-width="1.51"/><path d="M51,1125L73,1229L180,1163Z" fill="#899ab7" stroke="#899ab7" stroke-width="1.51"/><path d="M-49,1137L51,1125L-17,983Z" fill="#94aaca" stroke="#94aaca" stroke-width="1.51"/><path d="M350,-160L231,-128L322,-34Z" fill="#e5f5de" stroke="#e5f5de" stroke-width="1.51"/><path d="M1609,633L1426,701L1444,783Z" fill="#3c7aa8" stroke="#3c7aa8" stroke-width="1.51"/><path d="M1358,1114L1454,1027L1323,983Z" fill="#0b5b9e" stroke="#0b5b9e" stroke-width="1.51"/><path d="M1476,1151L1454,1027L1358,1114Z" fill="#094e90" stroke="#094e90" stroke-width="1.51"/><path d="M8,-63L-14,68L104,71Z" fill="#f3faec" stroke="#f3faec" stroke-width="1.51"/><path d="M281,1335L180,1342L475,1364Z" fill="#7c91a7" stroke="#7c91a7" stroke-width="1.51"/><path d="M73,1229L180,1342L245,1240Z" fill="#8394af" stroke="#8394af" stroke-width="1.51"/><path d="M1380,-62L1274,99L1328,120Z" fill="#8fa5c3" stroke="#8fa5c3" stroke-width="1.51"/><path d="M1164,-74L1150,-168L1017,-116Z" fill="#9dbfd6" stroke="#9dbfd6" stroke-width="1.51"/><path d="M-170,888L-120,993L-42,847Z" fill="#9ec1d7" stroke="#9ec1d7" stroke-width="1.51"/><path d="M1499,506L1588,465L1499,431Z" fill="#65899d" stroke="#65899d" stroke-width="1.51"/><path d="M1499,431L1615,273L1479,293Z" fill="#758fa3" stroke="#758fa3" stroke-width="1.51"/><path d="M1609,633L1444,783L1627,804Z" fill="#3578a9" stroke="#3578a9" stroke-width="1.51"/><path d="M-131,778L-170,888L-42,847Z" fill="#a4cbdc" stroke="#a4cbdc" stroke-width="1.51"/><path d="M-140,431L-170,888L-131,553Z" fill="#b9e2db" stroke="#b9e2db" stroke-width="1.51"/><path d="M1479,293L1460,169L1350,308Z" fill="#7c92a8" stroke="#7c92a8" stroke-width="1.51"/><path d="M1493,63L1460,169L1593,163Z" fill="#8494b0" stroke="#8494b0" stroke-width="1.51"/><path d="M-120,993L-49,1137L-17,983Z" fill="#97b0cf" stroke="#97b0cf" stroke-width="1.51"/><path d="M73,1229L64,1313L180,1342Z" fill="#8796b3" stroke="#8796b3" stroke-width="1.51"/><path d="M-14,68L-123,194L11,164Z" fill="#ecf8e6" stroke="#ecf8e6" stroke-width="1.51"/><path d="M-122,355L-123,194L-140,431Z" fill="#dff3d9" stroke="#dff3d9" stroke-width="1.51"/><path d="M1253,-179L1150,-168L1164,-74Z" fill="#9ab6d2" stroke="#9ab6d2" stroke-width="1.51"/><path d="M-49,1137L-4,1216L51,1125Z" fill="#8f9ebe" stroke="#8f9ebe" stroke-width="1.51"/><path d="M1609,633L1588,465L1565,530Z" fill="#5985a0" stroke="#5985a0" stroke-width="1.51"/><path d="M1565,530L1588,465L1499,506Z" fill="#60879e" stroke="#60879e" stroke-width="1.51"/><path d="M1627,804L1444,783L1459,879Z" fill="#296ea4" stroke="#296ea4" stroke-width="1.51"/><path d="M-4,1216L64,1313L73,1229Z" fill="#8a97b6" stroke="#8a97b6" stroke-width="1.51"/><path d="M-14,68L-142,71L-123,194Z" fill="#eff9e8" stroke="#eff9e8" stroke-width="1.51"/><path d="M126,-46L8,-63L104,71Z" fill="#f2faeb" stroke="#f2faeb" stroke-width="1.51"/><path d="M115,-183L8,-63L126,-46Z" fill="#f2faeb" stroke="#f2faeb" stroke-width="1.51"/><path d="M1382,1271L1476,1151L1358,1114Z" fill="#094688" stroke="#094688" stroke-width="1.51"/><path d="M1115,1304L1267,1370L1267,1208Z" fill="#105898" stroke="#105898" stroke-width="1.51"/><path d="M975,1375L1267,1370L1115,1304Z" fill="#1a619d" stroke="#1a619d" stroke-width="1.51"/><path d="M1382,1271L1358,1114L1267,1208Z" fill="#094c8e" stroke="#094c8e" stroke-width="1.51"/><path d="M1611,898L1627,804L1459,879Z" fill="#246aa2" stroke="#246aa2" stroke-width="1.51"/><path d="M1267,1370L1382,1271L1267,1208Z" fill="#094f91" stroke="#094f91" stroke-width="1.51"/><path d="M1548,1043L1459,879L1454,1027Z" fill="#145b9a" stroke="#145b9a" stroke-width="1.51"/><path d="M1248,-66L1253,-179L1164,-74Z" fill="#98b3d0" stroke="#98b3d0" stroke-width="1.51"/><path d="M1493,63L1429,2L1328,120Z" fill="#8a99b7" stroke="#8a99b7" stroke-width="1.51"/><path d="M1493,63L1328,120L1460,169Z" fill="#8596b2" stroke="#8596b2" stroke-width="1.51"/><path d="M1476,1151L1548,1043L1454,1027Z" fill="#0a5193" stroke="#0a5193" stroke-width="1.51"/><path d="M1429,2L1380,-62L1328,120Z" fill="#8e9fbe" stroke="#8e9fbe" stroke-width="1.51"/><path d="M1548,1043L1611,898L1459,879Z" fill="#1a609d" stroke="#1a609d" stroke-width="1.51"/><path d="M231,-128L115,-183L126,-46Z" fill="#edf8e7" stroke="#edf8e7" stroke-width="1.51"/><path d="M350,-160L115,-183L231,-128Z" fill="#e9f7e2" stroke="#e9f7e2" stroke-width="1.51"/><path d="M434,-180L115,-183L350,-160Z" fill="#e5f5de" stroke="#e5f5de" stroke-width="1.51"/><path d="M1253,-179L115,-183L434,-180Z" fill="#c9ead5" stroke="#c9ead5" stroke-width="1.51"/><path d="M1322,-125L1253,-179L1248,-66Z" fill="#95adcd" stroke="#95adcd" stroke-width="1.51"/><path d="M1150,-168L1253,-179L901,-176Z" fill="#9ec0d6" stroke="#9ec0d6" stroke-width="1.51"/><path d="M901,-176L1253,-179L434,-180Z" fill="#afdae0" stroke="#afdae0" stroke-width="1.51"/><path d="M1380,-62L1322,-125L1248,-66Z" fill="#93a7c7" stroke="#93a7c7" stroke-width="1.51"/><path d="M1593,163L1460,169L1479,293Z" fill="#7f93aa" stroke="#7f93aa" stroke-width="1.51"/><path d="M1429,2L1494,-177L1380,-62Z" fill="#8d98b9" stroke="#8d98b9" stroke-width="1.51"/><path d="M-139,8L-142,71L-14,68Z" fill="#f3fbec" stroke="#f3fbec" stroke-width="1.51"/><path d="M-123,194L-142,71L-140,431Z" fill="#e6f6df" stroke="#e6f6df" stroke-width="1.51"/><path d="M-140,431L-142,71L-170,888Z" fill="#ceecd3" stroke="#ceecd3" stroke-width="1.51"/><path d="M-139,8L-14,68L8,-63Z" fill="#f7fcef" stroke="#f7fcef" stroke-width="1.51"/><path d="M1588,465L1615,273L1499,431Z" fill="#6f8d9f" stroke="#6f8d9f" stroke-width="1.51"/><path d="M1609,633L1615,273L1588,465Z" fill="#668a9d" stroke="#668a9d" stroke-width="1.51"/><path d="M1627,804L1615,273L1609,633Z" fill="#5384a1" stroke="#5384a1" stroke-width="1.51"/><path d="M-4,1216L-57,1322L64,1313Z" fill="#8d98b8" stroke="#8d98b8" stroke-width="1.51"/><path d="M-49,1137L-160,1201L-4,1216Z" fill="#8e9aba" stroke="#8e9aba" stroke-width="1.51"/><path d="M-120,993L-171,1159L-49,1137Z" fill="#93a7c7" stroke="#93a7c7" stroke-width="1.51"/><path d="M-170,888L-171,1159L-120,993Z" fill="#98b4d0" stroke="#98b4d0" stroke-width="1.51"/><path d="M1476,1151L1595,1156L1548,1043Z" fill="#094b8d" stroke="#094b8d" stroke-width="1.51"/><path d="M1548,1043L1595,1156L1611,898Z" fill="#0d5697" stroke="#0d5697" stroke-width="1.51"/><path d="M1382,1271L1454,1268L1476,1151Z" fill="#084081" stroke="#084081" stroke-width="1.51"/><path d="M1457,1356L1454,1268L1382,1271Z" fill="#084182" stroke="#084182" stroke-width="1.51"/><path d="M1615,273L1593,163L1479,293Z" fill="#7d92a8" stroke="#7d92a8" stroke-width="1.51"/><path d="M1493,63L1611,-12L1429,2Z" fill="#8b97b7" stroke="#8b97b7" stroke-width="1.51"/><path d="M1380,-62L1494,-177L1322,-125Z" fill="#8f9dbd" stroke="#8f9dbd" stroke-width="1.51"/><path d="M-102,-160L-139,8L8,-63Z" fill="#f7fcf0" stroke="#f7fcf0" stroke-width="1.51"/><path d="M-160,1201L-57,1322L-4,1216Z" fill="#8d98b8" stroke="#8d98b8" stroke-width="1.51"/><path d="M64,1313L-57,1322L180,1342Z" fill="#8997b5" stroke="#8997b5" stroke-width="1.51"/><path d="M-171,1159L-160,1201L-49,1137Z" fill="#8f9dbd" stroke="#8f9dbd" stroke-width="1.51"/><path d="M1267,1370L1357,1385L1382,1271Z" fill="#094b8d" stroke="#094b8d" stroke-width="1.51"/><path d="M975,1375L1357,1385L1267,1370Z" fill="#125999" stroke="#125999" stroke-width="1.51"/><path d="M-162,1354L1357,1385L975,1375Z" fill="#4d83a3" stroke="#4d83a3" stroke-width="1.51"/><path d="M115,-183L-12,-162L8,-63Z" fill="#f5fbee" stroke="#f5fbee" stroke-width="1.51"/><path d="M1611,-12L1582,74L1593,163Z" fill="#8896b3" stroke="#8896b3" stroke-width="1.51"/><path d="M1593,163L1582,74L1493,63Z" fill="#8695b2" stroke="#8695b2" stroke-width="1.51"/><path d="M1322,-125L1494,-177L1253,-179Z" fill="#91a2c3" stroke="#91a2c3" stroke-width="1.51"/><path d="M1622,1198L1595,1156L1454,1268Z" fill="#084081" stroke="#084081" stroke-width="1.51"/><path d="M1454,1268L1595,1156L1476,1151Z" fill="#084182" stroke="#084182" stroke-width="1.51"/><path d="M1611,898L1622,1198L1627,804Z" fill="#175d9b" stroke="#175d9b" stroke-width="1.51"/><path d="M1357,1385L1457,1356L1382,1271Z" fill="#094486" stroke="#094486" stroke-width="1.51"/><path d="M-12,-162L-102,-160L8,-63Z" fill="#f7fcf0" stroke="#f7fcf0" stroke-width="1.51"/><path d="M115,-183L-102,-160L-12,-162Z" fill="#f7fcf0" stroke="#f7fcf0" stroke-width="1.51"/><path d="M1595,1156L1622,1198L1611,898Z" fill="#094f91" stroke="#094f91" stroke-width="1.51"/><path d="M1594,1355L1622,1198L1454,1268Z" fill="#084081" stroke="#084081" stroke-width="1.51"/><path d="M1615,273L1611,-12L1593,163Z" fill="#8394af" stroke="#8394af" stroke-width="1.51"/><path d="M1582,74L1611,-12L1493,63Z" fill="#8a97b5" stroke="#8a97b5" stroke-width="1.51"/><path d="M1627,804L1611,-12L1615,273Z" fill="#738ea1" stroke="#738ea1" stroke-width="1.51"/><path d="M-171,1159L-162,1354L-160,1201Z" fill="#8d98b8" stroke="#8d98b8" stroke-width="1.51"/><path d="M-160,1201L-162,1354L-57,1322Z" fill="#8d98b8" stroke="#8d98b8" stroke-width="1.51"/><path d="M-57,1322L-162,1354L180,1342Z" fill="#8d98b8" stroke="#8d98b8" stroke-width="1.51"/><path d="M180,1342L-162,1354L475,1364Z" fill="#8394af" stroke="#8394af" stroke-width="1.51"/><path d="M475,1364L-162,1354L975,1375Z" fill="#728ea1" stroke="#728ea1" stroke-width="1.51"/><path d="M1580,-153L1494,-177L1429,2Z" fill="#8d98b8" stroke="#8d98b8" stroke-width="1.51"/><path d="M1457,1356L1594,1355L1454,1268Z" fill="#084081" stroke="#084081" stroke-width="1.51"/><path d="M1357,1385L1594,1355L1457,1356Z" fill="#084081" stroke="#084081" stroke-width="1.51"/><path d="M1611,-12L1580,-153L1429,2Z" fill="#8d98b8" stroke="#8d98b8" stroke-width="1.51"/></svg>